<?xml version="1.0" encoding="utf-8"?>
<!-- Generator: Adobe Illustrator 27.8.1, SVG Export Plug-In . SVG Version: 6.00 Build 0)  -->
<svg version="1.1" id="レイヤー_1" xmlns="http://www.w3.org/2000/svg" xmlns:xlink="http://www.w3.org/1999/xlink" x="0px"
	 y="0px" width="32px" height="32px" viewBox="0 0 32 32" enable-background="new 0 0 32 32" xml:space="preserve">
<path fill="#FFFFFF" d="M8,2.9999855c-1.09375,0-2,0.90625-2,1.9999998v22c0,1.09375,0.90625,2,2,2h16c1.09375,0,2-0.90625,2-2
	v-17.40625l-0.28125-0.3125l-6-6l-0.3125-0.28125H8z M8,4.9999852h9v5.0000005c0,1.09375,0.90625,2,2,2h5v14.999999H8V4.9999852z
	 M19,5.4374852l4.5625,4.5625005H19V5.4374852z M11,14.9999857v1.999999h10v-1.999999H11z M11,17.9999847v2h10v-2H11z
	 M11,20.9999847v2h5v-2H11z"/>
</svg>
