<?xml version="1.0" encoding="UTF-8"?><svg id="b" xmlns="http://www.w3.org/2000/svg" width="32.2433851" height="24.5684" viewBox="0 0 32.2433851 24.5684"><g id="c"><path d="m27.310285,2.0549c-2.1169999-.9747-4.3534999-1.6656-6.6512998-2.0549-.2915.5101-.6209,1.1951-.8512,1.7488-2.4435999-.3643-4.9277999-.3643-7.3713998,0-.261-.5976-.5529-1.1813-.8744-1.7488-2.3008999.3892-4.5396999,1.0831-6.6571998,2.0637C.7074857,8.3216-.4322143,14.431.1361857,20.4469c2.4639999,1.8311,5.2246999,3.2243,8.1612998,4.1186.6605-.8952,1.2455-1.8439,1.7489-2.8361-.9542-.3563-1.8749-.7961-2.7514999-1.3145.2292-.173.4507-.3468.6644-.5217,5.1665999,2.4435,11.1561997,2.4435,16.3226996,0,.2186.1807.4459.3555.6733.5246-.8782.5209-1.801.9628-2.7572999,1.3204.5025.9908,1.0876,1.9375,1.7488,2.8302,2.9377999-.8914,5.6989999-2.2849,8.1612998-4.1186.6646156-6.975-1.1483844-13.0289-4.7977999-18.3949Zm-16.5468996,14.6962c-1.5915,0-2.8972999-1.4575-2.8972999-3.2471s1.2767-3.2587,2.8972999-3.2587,2.9146999,1.4574,2.9001999,3.2499c-.0146,1.7926-1.2796,3.2559-2.9001999,3.2559Zm10.7116997,0c-1.5915,0-2.8972999-1.4575-2.8972999-3.2471s1.2766-3.2587,2.8972999-3.2587c1.6206153,0,2.9146999,1.4574,2.8971999,3.2499-.0175,1.7926-1.2765846,3.2559-2.8971999,3.2559Z" fill="#fff" stroke-width="0"/></g></svg>