<?xml version="1.0" encoding="utf-8"?>
<!-- Generator: Adobe Illustrator 27.8.1, SVG Export Plug-In . SVG Version: 6.00 Build 0)  -->
<svg version="1.1" id="b" xmlns="http://www.w3.org/2000/svg" xmlns:xlink="http://www.w3.org/1999/xlink" x="0px" y="0px"
	 width="27.144968px" height="22.3420658px" viewBox="0 0 27.144968 22.3420658" enable-background="new 0 0 27.144968 22.3420658"
	 xml:space="preserve">
<g id="c">
	<path fill="#FFFFFF" d="M27.033268,2.6780193c-0.8617916,0.3899-1.8150997,0.6266-2.7451,0.7827001
		c0.4414997-0.0743001,1.0898991-0.8734999,1.3498001-1.1967001c0.3971004-0.4929001,0.7255993-1.0548002,0.9111996-1.6615001
		c0.0237999-0.0473,0.0412006-0.1069-0.0060997-0.1428c-0.0595913-0.0236-0.0981998-0.0114-0.1452999,0.0122
		c-1.0384007,0.5562-2.1124001,0.9597-3.2551003,1.2454c-0.0946007,0.0237-0.1648006,0-0.2243004-0.0595
		c-0.0948009-0.1068-0.1837997-0.2076-0.2845993-0.2908c-0.4802914-0.4088-0.9955006-0.7292-1.5767994-0.966
		c-0.7628994-0.3111-1.5964928-0.4428-2.4179001-0.3895c-0.799593,0.0519-1.5845928,0.2773-2.2942009,0.648
		c-0.7110996,0.3714-1.3455,0.8881999-1.8507004,1.5116003c-0.5226002,0.6449001-0.9078999,1.4064999-1.1051998,2.2137001
		c-0.1904926,0.7789998-0.1747999,1.5496001-0.0586996,2.3371c0.0177002,0.1306,0.0059996,0.1483002-0.1122999,0.1306
		C8.7476683,6.1872196,5.0423679,4.5877194,2.0341682,1.1600195c-0.1305-0.1488-0.2014-0.1488-0.3083,0.0114
		c-1.3163927,1.9730002-0.6777999,5.1427994,0.9665,6.7006998c0.2193,0.2077003,0.4445999,0.4154,0.6874001,0.6048007
		c-0.0885,0.0181999-1.1828001-0.1004-2.158-0.6048007c-0.1306-0.0825-0.1961-0.0352001-0.2077,0.1128001
		c-0.0121,0.2133007,0.0061001,0.4094009,0.0354073,0.6408005c0.2525927,1.9998999,1.6375928,3.8498001,3.5344925,4.5716
		c0.2254,0.0948,0.4742002,0.1780005,0.7171001,0.2193003c-0.4322,0.0948-0.8772001,0.1624002-2.1166999,0.0655003
		c-0.1542001-0.0296001-0.2132001,0.0474005-0.1542001,0.1955996c0.9312,2.5383997,2.9417002,3.2936983,4.4470997,3.7239981
		c0.2016001,0.0352993,0.4032998,0.0352993,0.6055002,0.0825996c-0.0122929,0.0181999-0.0242929,0.0181999-0.0359001,0.0358009
		c-0.4993925,0.7612991-2.2305002,1.3279991-3.0370998,1.6098003c-1.4662926,0.5125008-3.0628998,0.7429008-4.6125998,0.5902996
		c-0.248-0.0365009-0.3001-0.0338001-0.3674,0c-0.0681,0.0419998-0.0087,0.1012001,0.0711,0.1655006
		c0.3145,0.2077007,0.6344,0.3917999,0.9607,0.5697002c0.9843,0.5216007,2.0105,0.9370003,3.0833998,1.2332993
		c5.5411,1.5303001,11.7828007,0.4057999,15.9435081-3.7278996c3.2673931-3.2463989,4.4123917-7.7231989,4.4123917-12.2055988
		c0-0.1753998,0.2073002-0.2722998,0.3304996-0.3649001c0.8500004-0.6387,1.5356998-1.4028997,2.1697006-2.2563999
		c0.1424999-0.1917,0.1438999-0.3622999,0.1438999-0.4324v-0.0235C27.144968,2.6063199,27.143568,2.62782,27.033268,2.6780193z"/>
</g>
</svg>
