<?xml version="1.0" encoding="UTF-8"?><svg id="b" xmlns="http://www.w3.org/2000/svg" width="320" height="319.999691" viewBox="0 0 320 319.999691"><g id="c"><rect width="320" height="319.999691" rx="72.1402317" ry="72.1402317" fill="#06c755" stroke-width="0"/><path d="m266.655819,144.9241624c0-47.7392642-47.8594271-86.5793159-106.6885156-86.5793159-58.8238639,0-106.6882083,38.8400517-106.6882083,86.5793159,0,42.7987061,37.9552618,78.6420309,89.2253827,85.4179344,3.4736954.7507952,8.2037356,2.2911085,9.3992302,5.2614055,1.0756378,2.696163.7040818,6.9221902.3454334,9.6466271,0,0-1.251735,7.5282353-1.5231031,9.1333942-.4652902,2.6955483-2.1445144,10.5489336,9.2412651,5.751589,11.3876235-4.7982666,61.440737-36.1789238,83.8244517-61.9413711h-.0049172c15.4612174-16.9566616,22.8689811-34.1637932,22.8689811-53.2695791Z" fill="#fff" stroke-width="0"/><path d="m231.1631531,172.4903006h-29.9737222c-1.1251171,0-2.0369506-.9118335-2.0369506-2.0369507v-46.5612872c0-1.1251171.9118335-2.0369507,2.0369506-2.0369507h29.9737222c1.1205072,0,2.0372579.9164434,2.0372579,2.0369507v7.5660363c0,1.1251171-.9121408,2.037258-2.0372579,2.037258h-20.3704282v7.8570732h20.3704282c1.1205072,0,2.0372579.9167507,2.0372579,2.037258v7.5660363c0,1.1251171-.9121408,2.037258-2.0372579,2.037258h-20.3704282v7.8570732h20.3704282c1.1205072,0,2.0372579.9167507,2.0372579,2.0369507v7.5663436c0,1.1251171-.9121408,2.0369507-2.0372579,2.0369507Z" fill="#06c755" stroke-width="0"/><path d="m120.2891772,172.4903006c1.1248098,0,2.0369506-.9118335,2.0369506-2.0369507v-7.5663436c0-1.1201999-.9167057-2.0369507-2.0369506-2.0369507h-20.3707355v-36.9579929c0-1.1205073-.9167507-2.0369507-2.0369506-2.0369507h-7.5663434c-1.1251171,0-2.0369506.9118335-2.0369506,2.0369507v46.5612872c0,1.1251171.9118335,2.0369507,2.0369506,2.0369507h29.9740295Z" fill="#06c755" stroke-width="0"/><rect x="128.7301678" y="121.8548048" width="11.6402447" height="50.6354958" rx="2.0369506" ry="2.0369506" fill="#06c755" stroke-width="0"/><path d="m189.842067,121.8548048h-7.5663434c-1.1251171,0-2.0369506.9121409-2.0369506,2.0369507v27.6549552l-21.3031598-28.769316c-.0494793-.0740653-.1051052-.1435208-.1638043-.2105177-.0039493-.0049172-.0086051-.0095271-.013169-.0147516-.0393836-.0439475-.0799045-.0863583-.1226687-.1269253-.0125544-.0116784-.025508-.0230494-.0381083-.0347277-.0362644-.0322691-.0727901-.0636163-.110637-.0934268-.0181322-.014137-.0365717-.0273519-.0553185-.0411816-.0347277-.025508-.0706848-.0504013-.1075638-.0740653-.0205448-.013215-.0414889-.025508-.062387-.037801-.0371863-.0218201-.0740653-.0427182-.112481-.0620797-.0212054-.0110637-.0430255-.0212054-.0648456-.0313472-.0389843-.0181322-.0786752-.0353424-.1188889-.0513233-.0221734-.0082978-.0443008-.0162882-.0664282-.0242787-.0408742-.014137-.0817485-.0276593-.1235447-.0396449-.0239714-.0067612-.04825-.0126003-.0722214-.0184395-.0402596-.0098344-.0802118-.0190542-.1210861-.02643-.0288886-.0052245-.0577771-.0092198-.0866657-.013215-.0365717-.0052245-.0731434-.0104491-.1100224-.0135223-.0362644-.0030733-.0722214-.0043026-.1087931-.0052245-.0230494-.000922-.0460988-.0036879-.0697628-.0036879h-7.5245472c-1.1248098,0-2.0369049.9121409-2.0369049,2.0369507v46.5615945c0,1.1248098.9120951,2.0369507,2.0369049,2.0369507h7.5663434c1.1251171,0,2.0369506-.9121409,2.0369506-2.0369507v-27.6463501l21.3298971,28.8055803c.1469014.2077518.3263792.3777025.5252651.5129256.0079439.0055319.015627.0110637.0239248.0162882.0414889.0276593.0845144.0534746.1278472.0777532.0193615.0110637.0390303.0221274.0593137.0325765.0322691.0169029.0651529.0325765.0986514.0476354.0331911.0150589.0660749.0295032.0998807.0430255.0212054.0082978.0430255.0159809.0645383.023664.0460988.0162882.0925048.0316545.1404941.0448695.0094805.0027659.0193149.0052245.0291493.0076831.1702581.0448695.3481993.0712994.532287.0712994h7.5248545c1.1248098,0,2.0369974-.9121409,2.0369974-2.0369507v-46.5615945c0-1.1248098-.9121876-2.0369507-2.0369974-2.0369507Z" fill="#06c755" stroke-width="0"/></g></svg>