<?xml version="1.0" encoding="utf-8"?>
<!-- Generator: Adobe Illustrator 27.0.1, SVG Export Plug-In . SVG Version: 6.00 Build 0)  -->
<svg version="1.1" id="レイヤー_1" xmlns="http://www.w3.org/2000/svg" xmlns:xlink="http://www.w3.org/1999/xlink" x="0px"
	 y="0px" width="147px" height="187.8px" viewBox="0 0 147 187.8" style="enable-background:new 0 0 147 187.8;"
	 xml:space="preserve">
<style type="text/css">
	.st0{fill:#0B0C0C;}
	.st1{fill:#F0EFF2;}
</style>
<g>
	<path class="st0" d="M0,93.9c0-25.5,0-51,0-76.5C0,6.7,6.3,0.3,17.2,0.2C43.6,0.2,69.9,0.5,96.3,0c6.2-0.1,9.8,1.9,13.4,6.5
		c11.3,13.9,23,27.6,34.7,41.3c1.8,2.1,2.6,4.2,2.6,7c-0.1,38.5-0.1,77-0.1,115.4c0,10.7-6.4,17.5-17,17.5
		c-37.6,0.1-75.2,0.1-112.8,0C6.4,187.7,0,181,0,170.3C0,144.8,0,119.3,0,93.9z M8.1,93.9c0,25.6,0,51.2,0,76.8c0,5.9,3.1,9,8.9,9
		c37.6,0,75.2,0,112.8,0c5.8,0,8.9-3.1,9-8.9c0-37.1,0-74.2,0.1-111.3c0-3-1-3.4-3.6-3.4c-10.1,0.1-20.2,0.1-30.4,0.1
		c-6,0-6.7-0.7-6.7-6.6c0-12.5-0.1-25,0.1-37.5c0-3.1-0.5-4.2-4-4.2C68.9,8.1,43.5,8,18.2,8C10.8,8,8.1,10.8,8.1,18.2
		C8.1,43.4,8.1,68.6,8.1,93.9z M106.5,15.3c0,10.9,0,20.9,0,30.8c0,2,0.9,2.2,2.5,2.2c4.4-0.1,8.7,0,13.1,0c3.8,0,7.6,0,11.6,0
		c-0.3-0.8-0.3-1.1-0.5-1.2C124.5,36.8,115.8,26.4,106.5,15.3z"/>
	<path class="st0" d="M73.3,124.3c-12,0-24,0-36,0c-9.5,0-16.3-6.5-16.5-16c-0.1-7.5-0.1-15,0.1-22.5c0.2-7.9,7-14.8,14.9-14.8
		c25-0.1,50-0.1,74.9,0c8.3,0,15,7,15.1,15.4c0.1,7.5,0.1,15,0,22.5c-0.1,8.5-7,15.3-15.5,15.4C98.1,124.3,85.7,124.3,73.3,124.3z
		 M73.1,79.1c-11.7,0-23.5,0-35.2,0c-6.2,0-9.1,2.9-9.2,9.2c-0.1,6.4-0.1,12.7,0,19.1c0.1,5.6,3,8.7,8.5,8.7
		c24.1,0.1,48.2,0.1,72.4,0c5.6,0,8.5-3,8.6-8.6c0.1-6.5,0.1-13,0-19.5c-0.1-6-3-8.9-9.1-8.9C97.1,79.1,85.1,79.1,73.1,79.1z"/>
	<path class="st1" d="M73.1,79.1c12,0,24,0,36,0c6.1,0,9,2.8,9.1,8.9c0.1,6.5,0.1,13,0,19.5c-0.1,5.7-3,8.6-8.6,8.6
		c-24.1,0.1-48.2,0.1-72.4,0c-5.5,0-8.5-3.1-8.5-8.7c-0.1-6.4-0.1-12.7,0-19.1c0.1-6.3,3-9.2,9.2-9.2C49.6,79.1,61.4,79.1,73.1,79.1
		z M62.8,97.3c0,1.2-0.1,2.5,0,3.7c0.2,3.2-1.4,7.4,0.7,9.2c1.8,1.6,5.9,0.5,9,0.5c9.3-0.1,15.1-6.2,13.6-15.3
		c-1.4-9-7.3-12.2-21.1-10.6c-5.1,0.6-1,6.3-2.2,9.5C62.6,95.2,62.8,96.3,62.8,97.3z M39.8,97.3c0,3.7,0.2,7.5-0.1,11.2
		c-0.1,2.7,1.5,2.3,3.1,2.3c1.5,0,3.3,0.7,3.2-2.2c-0.1-2.1-0.9-4.7,0.4-6.1c1.4-1.5,4-0.4,6.1-0.7c4.2-0.7,7-3.9,7.2-8.2
		c0.2-4-2.1-7-6.1-8.2c-4-1.3-8.2-0.5-12.2-0.7c-1.8-0.1-1.5,1.2-1.5,2.3C39.8,90.3,39.8,93.8,39.8,97.3z M90,96.5
		c0,4.3,0.2,7.8-0.1,11.3c-0.2,2.6,0.9,2.9,3.2,3c2.6,0.1,3-0.9,3-3.2c-0.1-6.7,0-6.8,6.8-7.1c1.9-0.1,2.2-0.8,2.2-2.4
		c0-1.7-0.3-2.6-2.3-2.4c-1.4,0.1-2.8-0.1-4.1,0.1c-2.1,0.2-2.7-0.5-2.8-2.6c-0.2-3.2,0.6-4.7,4-4.1c1.7,0.3,3.5,0,5.2,0.1
		c1.9,0.1,1.8-1.2,1.8-2.5c0-1.2,0-2.3-1.7-2.2c-0.7,0.1-1.5,0-2.2,0c-4.2,0.1-9.8-1.4-12.3,0.7C88.2,87.4,90.3,93.1,90,96.5z"/>
	<path class="st0" d="M62.8,97.3c0-1-0.3-2.1,0-3c1.2-3.2-2.9-8.9,2.2-9.5c13.8-1.5,19.7,1.6,21.1,10.6c1.5,9.2-4.3,15.3-13.6,15.3
		c-3.1,0-7.2,1.1-9-0.5c-2.1-1.8-0.5-6.1-0.7-9.2C62.8,99.8,62.8,98.5,62.8,97.3z M80.2,98.4c-0.1-6.4-2.9-9.2-8.3-9.4
		c-2.2-0.1-3.2,0.3-3,2.8c0.2,3.1,0.1,6.2,0.1,9.4c0,5.5,1.2,6.3,6.6,4.3C79.4,104.1,80.1,101,80.2,98.4z"/>
	<path class="st0" d="M39.8,97.3c0-3.5,0-7,0-10.5c0-1.1-0.3-2.4,1.5-2.3c4.1,0.2,8.2-0.6,12.2,0.7c4,1.3,6.3,4.2,6.1,8.2
		c-0.2,4.3-3,7.5-7.2,8.2c-2,0.3-4.7-0.7-6.1,0.7c-1.4,1.5-0.5,4.1-0.4,6.1c0.2,2.8-1.7,2.1-3.2,2.2c-1.6,0.1-3.3,0.4-3.1-2.3
		C40,104.7,39.8,101,39.8,97.3z M46,93.1c0.4,1.8-1.2,4.5,2.7,4.3c3-0.1,5-1.2,4.9-4.3c0-3.1-2.3-4-5.1-4.1
		C44.8,88.8,46.4,91.5,46,93.1z"/>
	<path class="st0" d="M90,96.5c0.3-3.4-1.8-9.1,0.8-11.3c2.5-2.1,8.1-0.6,12.3-0.7c0.7,0,1.5,0.1,2.2,0c1.7-0.1,1.7,0.9,1.7,2.2
		c0,1.3,0.1,2.6-1.8,2.5c-1.7-0.1-3.5,0.2-5.2-0.1c-3.5-0.6-4.2,0.9-4,4.1c0.1,2.1,0.7,2.8,2.8,2.6c1.4-0.1,2.8,0.1,4.1-0.1
		c1.9-0.2,2.3,0.7,2.3,2.4c0,1.7-0.3,2.4-2.2,2.4c-6.8,0.3-6.9,0.4-6.8,7.1c0,2.3-0.3,3.3-3,3.2c-2.3-0.1-3.3-0.4-3.2-3
		C90.2,104.3,90,100.8,90,96.5z"/>
	<path class="st1" d="M80.2,98.4c-0.1,2.6-0.9,5.7-4.7,7.1c-5.4,2-6.6,1.2-6.6-4.3c0-3.1,0.2-6.3-0.1-9.4c-0.2-2.5,0.9-2.9,3-2.8
		C77.3,89.2,80.2,92.1,80.2,98.4z"/>
	<path class="st1" d="M46,93.1c0.4-1.6-1.2-4.2,2.5-4.1c2.9,0.1,5.1,1,5.1,4.1c0,3-1.9,4.1-4.9,4.3C44.8,97.6,46.3,94.9,46,93.1z"/>
</g>
</svg>
