<?xml version="1.0" encoding="UTF-8"?><svg id="b" xmlns="http://www.w3.org/2000/svg" width="30.0394949" height="24.8383118" viewBox="0 0 30.0394949 24.8383118"><g id="c"><path d="m1.8416555,10.8171672S15.1274552,5.3646672,19.735155,3.4447672c1.7663-.768,7.7563998-3.2255,7.7563998-3.2255,0,0,2.7646999-1.0751,2.5342999,1.5359-.0768829,1.0752-.6912,4.8382-1.3055,8.9084-.9216,5.7598-1.92,12.057-1.92,12.057,0,0-.1536,1.7664-1.4591,2.0735-1.3055.3072-3.4558999-1.0751-3.8397999-1.3823-.3072-.2303-5.7596999-3.6862-7.7563998-5.3758-.5376-.4607-1.1519-1.3822.0767-2.4574,2.7646999-2.5343,6.0669998-5.6829,8.0635998-7.6796.9216168-.9216,1.8431-3.0719-1.9965999-.4609-5.4524999,3.7631-10.8282997,7.2957-10.8282997,7.2957,0,0-1.2287.768-3.5325999.0768-2.3039999-.6911-4.9917999-1.6127-4.9917999-1.6127,0,0-1.843-1.1519,1.3056-2.3807h0Z" fill="#fff" stroke-width="0"/></g></svg>